<svg height="511pt" viewBox="0 0 511 511.85567" width="511pt" xmlns="http://www.w3.org/2000/svg"><path d="m457.414062 270.535156c-20.984374-21.070312-223.875-158.71875-232.503906-164.566406-1.3125-.90625-3.058594-.914062-4.402344-.058594-1.351562.867188-2.054687 2.449219-1.792968 4.035156.496094 2.933594.714844 6.871094-1.046875 8.957032-1.191407 1.410156-3.472657 2.128906-6.757813 2.128906h-.011718c-41.917969 0-187.460938-107.726562-204.335938-120.328125-1.582031-1.183594-3.652344-.8007812-5.054688.601563-1.40625 1.40625-1.398437 3.847656-.207031 5.445312 64.511719 86.410156 129.289063 188.714844 119.046875 209.136719-.679687 1.359375-2.015625 2.921875-6.3125 2.921875-1.167968 0-2.445312-.121094-3.839844-.351563-1.550781-.28125-3.160156.4375-4.023437 1.789063-.863281 1.34375-.839844 3.082031.054687 4.402344 5.851563 8.632812 143.503907 211.519531 164.570313 232.582031 24.894531 24.898437 58.023437 38.609375 93.269531 38.609375 35.25 0 68.402344-13.710938 93.335938-38.609375 24.9375-24.933594 38.675781-58.101563 38.675781-93.375 0-35.289063-13.738281-68.421875-38.664063-93.320313zm-93.3125 177.296875c-46.320312 0-84-37.679687-84-84 0-46.320312 37.679688-84 84-84 46.320313 0 84 37.679688 84 84 0 46.320313-37.679687 84-84 84zm0 0" fill="#5d9cec"/><path d="m452.117188 363.855469c0 48.609375-39.40625 88.015625-88.015626 88.015625-48.609374 0-88.015624-39.40625-88.015624-88.015625s39.40625-88.015625 88.015624-88.015625c48.609376 0 88.015626 39.40625 88.015626 88.015625zm0 0" fill="#f5f7fa"/><path d="m364.109375 475.855469c-49.632813 0-92.707031-31.871094-107.167969-79.320313-.640625-2.113281.542969-4.34375 2.664063-4.992187 2.109375-.640625 4.34375.550781 4.992187 2.664062 13.429688 44.046875 53.429688 73.648438 99.511719 73.648438 4.550781 0 9.167969-.304688 13.710937-.894531 2.160157-.289063 4.191407 1.253906 4.488282 3.453124.28125 2.1875-1.257813 4.195313-3.457032 4.488282-4.878906.632812-9.839843.953125-14.742187.953125zm29.871094-4.183594c-1.746094 0-3.34375-1.144531-3.839844-2.894531-.609375-2.121094.617187-4.335938 2.742187-4.945313 4.929688-1.417969 9.785157-3.214843 14.433594-5.34375 1.984375-.9375 4.375-.046875 5.296875 1.96875.917969 2.007813.039063 4.375-1.96875 5.292969-5 2.296875-10.230469 4.242188-15.550781 5.769531-.378906.105469-.746094.152344-1.113281.152344zm-136.726563-87.894531c-1.945312 0-3.65625-1.433594-3.953125-3.417969-.800781-5.441406-1.199219-10.992187-1.199219-16.511719 0-2.207031 1.789063-4 4-4 2.207032 0 4 1.792969 4 4 0 5.136719.375 10.296875 1.125 15.34375.320313 2.183594-1.191406 4.214844-3.375 4.542969-.207031.023437-.40625.042969-.597656.042969zm211.132813-44.167969c-1.765625 0-3.375-1.167969-3.855469-2.953125-1.34375-4.953125-3.0625-9.832031-5.117188-14.511719-.882812-2.023437.03125-4.386719 2.054688-5.273437 2.03125-.863282 4.390625.03125 5.273438 2.054687 2.207031 5.050781 4.0625 10.304688 5.503906 15.640625.574218 2.136719-.683594 4.328125-2.816406 4.90625-.34375.085938-.699219.136719-1.042969.136719zm-12.804688-29.210937c-1.328125 0-2.625-.664063-3.386719-1.863282-19.183593-30.488281-52.109374-48.6875-88.0625-48.6875-.007812 0-.015624 0-.023437 0-13.945313 0-27.480469 2.710938-40.21875 8.054688-2.046875.855468-4.375-.109375-5.230469-2.144532-.855468-2.039062.105469-4.382812 2.144532-5.230468 13.726562-5.757813 28.304687-8.679688 43.3125-8.679688h.023437c38.71875 0 74.167969 19.59375 94.832031 52.425782 1.175782 1.871093.617188 4.34375-1.25 5.511718-.671875.414063-1.40625.613282-2.140625.613282zm-160.480469-25.640626c-1.152343 0-2.28125-.496093-3.082031-1.445312-1.40625-1.695312-1.175781-4.21875.519531-5.632812 4.242188-3.527344 8.792969-6.777344 13.496094-9.632813 1.890625-1.136719 4.351563-.535156 5.503906 1.34375 1.144532 1.890625.539063 4.351563-1.34375 5.503906-4.375 2.648438-8.589843 5.65625-12.535156 8.945313-.75.617187-1.65625.917968-2.558594.917968zm0 0" fill="#4a89dc"/><g fill="#5d9cec"><path d="m364.109375 511.855469c-39.527344 0-76.695313-15.398438-104.65625-43.359375-1.5625-1.558594-1.5625-4.097656 0-5.65625 1.558594-1.558594 4.09375-1.558594 5.65625 0 26.453125 26.449218 61.605469 41.015625 99 41.015625 37.390625-.007813 72.535156-14.566407 98.984375-41.023438 26.453125-26.449219 41.015625-61.601562 41.023438-98.984375 0-37.398437-14.570313-72.550781-41.023438-99.007812-1.5625-1.558594-1.5625-4.097656 0-5.65625 1.558594-1.558594 4.09375-1.558594 5.65625 0 27.964844 27.960937 43.367188 65.136718 43.367188 104.664062-.007813 39.519532-15.410157 76.6875-43.367188 104.640625-27.953125 27.960938-65.113281 43.359375-104.640625 43.367188zm0 0"/><path d="m465.925781 266.015625c-1.027343 0-2.050781-.390625-2.832031-1.167969l-22.625-22.625c-1.558594-1.558594-1.558594-4.09375 0-5.65625 1.558594-1.558594 4.09375-1.558594 5.65625 0l22.625 22.625c1.558594 1.558594 1.558594 4.097656 0 5.65625-.777344.777344-1.800781 1.167969-2.824219 1.167969zm0 0"/><path d="m431.988281 232.078125c-1.023437 0-2.046875-.390625-2.832031-1.167969l-11.3125-11.308594c-1.558594-1.5625-1.558594-4.097656 0-5.65625 1.558594-1.5625 4.097656-1.5625 5.65625 0l11.3125 11.308594c1.558594 1.5625 1.558594 4.097656 0 5.65625-.777344.777344-1.800781 1.167969-2.824219 1.167969zm0 0"/><path d="m250.972656 458.351562c-1.023437 0-2.046875-.390624-2.832031-1.167968l-5.65625-5.65625c-1.558594-1.558594-1.558594-4.09375 0-5.65625 1.558594-1.558594 4.097656-1.558594 5.65625 0l5.65625 5.65625c1.558594 1.558594 1.558594 4.097656 0 5.65625-.777344.777344-1.800781 1.167968-2.824219 1.167968zm0 0"/><path d="m352.796875 164.191406c-1.023437 0-2.046875-.390625-2.832031-1.167968l-101.824219-101.824219c-1.558594-1.558594-1.558594-4.09375 0-5.65625 1.558594-1.558594 4.09375-1.558594 5.65625 0l101.832031 101.824219c1.558594 1.558593 1.558594 4.097656 0 5.65625-.785156.777343-1.808594 1.167968-2.832031 1.167968zm0 0"/><path d="m217.035156 73.6875c-1.023437 0-2.046875-.390625-2.832031-1.167969l-33.941406-33.953125c-1.5625-1.558594-1.5625-4.09375 0-5.65625 1.558593-1.558594 4.09375-1.558594 5.65625 0l33.941406 33.945313c1.5625 1.558593 1.5625 4.097656 0 5.65625-.773437.785156-1.800781 1.175781-2.824219 1.175781zm0 0"/><path d="m160.453125 333.894531c-1.023437 0-2.050781-.390625-2.832031-1.167969l-22.625-22.621093c-1.558594-1.5625-1.558594-4.097657 0-5.65625 1.558594-1.5625 4.097656-1.5625 5.65625 0l22.625 22.621093c1.558594 1.5625 1.558594 4.097657 0 5.65625-.777344.777344-1.800782 1.167969-2.824219 1.167969zm0 0"/><path d="m103.890625 254.703125c-1.023437 0-2.046875-.390625-2.832031-1.167969l-67.878906-67.878906c-1.558594-1.5625-1.558594-4.097656 0-5.65625 1.5625-1.558594 4.097656-1.558594 5.65625 0l67.878906 67.878906c1.5625 1.5625 1.5625 4.097656 0 5.65625-.773438.777344-1.796875 1.167969-2.824219 1.167969zm0 0"/></g></svg>