<?xml version="1.0" encoding="iso-8859-1"?>
<!-- Generator: Adobe Illustrator 16.0.0, SVG Export Plug-In . SVG Version: 6.00 Build 0)  -->
<!DOCTYPE svg PUBLIC "-//W3C//DTD SVG 1.1//EN" "http://www.w3.org/Graphics/SVG/1.1/DTD/svg11.dtd">
<svg version="1.1" id="Capa_1" xmlns="http://www.w3.org/2000/svg" xmlns:xlink="http://www.w3.org/1999/xlink" x="0px" y="0px"
	 width="483.8px" height="483.8px" viewBox="0 0 483.8 483.8" style="enable-background:new 0 0 483.8 483.8;" xml:space="preserve"
	>
<g>
	<path d="M44.5,277.899c0.6-1.9,1.3-4.199,2.2-6.699c3.2-9.4,7.7-23.101,14.9-39.801c3.6-8.3,7.7-17.4,12.9-26.9
		c5.1-9.5,11.1-19.4,18.3-29.1c14.3-19.5,34-38.3,59.4-49.5c35.5-15.7,79.2-17.9,115.7-4.3c37.3,13.9,66.699,42.5,80.3,80
		c2.899,8,5,16.2,6.399,24.6c12.5,73.5-46.1,155.1-125,149c-6.5-0.5-13-1.601-19.3-3.4c-38.2-10.801-65-41.301-69.5-80.6
		c-0.2-1.9-0.3-3.801-0.4-5.701c0-1.899-0.1-3.799,0-5.799c0.3-15.301,4-30.4,10.5-43.301c0.4-0.8,0.8-1.6,1.3-2.4
		c0.4-0.8,0.8-1.6,1.3-2.4c0.9-1.5,1.8-3.1,2.8-4.6l0.7-1.1c0.2-0.4,0.5-0.8,0.7-1.1l1.3-1.9c0.3-0.5,1.2-1.5,1.8-2.4l1-1.3l0.5-0.6
		c0.4-0.4-0.2,0.2-0.1,0.1l0.2-0.2c4.4-5.3,9.4-9.7,14.7-13.4c5.3-3.7,11.1-6.4,17-8.2c5.9-1.8,12-2.7,18-2.7c6,0.1,11.9,1,17.6,2.8
		c0.7,0.2,1.4,0.5,2.1,0.7c0.7,0.2,1.4,0.5,2,0.7l0.9,0.3l0.5,0.2l0.2,0.1l0.3,0.1c0.8,0.4,1.7,0.8,2.5,1.2l0.3,0.1
		c0.4,0.2-0.2-0.1-0.1,0l0.4,0.2l0.8,0.4c0.5,0.3,1.1,0.6,1.6,0.9c1,0.6,2.1,1.3,3.1,2c8,5.9,13.4,15.4,14.9,24.4
		c0.399,2.3,0.6,4.5,0.6,6.7c0,2.2-0.3,4.4-0.7,6.5c-0.399,2.1-1.1,4.1-1.899,6c-0.2,0.5-0.4,1-0.601,1.4
		c-0.199,0.5-0.5,0.9-0.699,1.4c-0.2,0.5-0.5,0.9-0.7,1.199l-0.3,0.601l-0.2,0.3l-0.101,0.1l-0.1,0.201c-0.4,0.6-0.8,1.1-1.2,1.699
		l-0.3,0.4l-0.1,0.199c-0.101,0.101,0.399-0.399,0.1-0.1l-0.5,0.7c-0.6,0.899-1.3,1.8-1.9,2.7c-1.3,1.8-2.8,3.5-4.3,5.199
		c-3,3.301-6.2,6.101-9.5,8.601c-6.5,5-13.2,8.101-19.2,9.3c-6,1.2-11.4,0.4-15.4-1.699c-4.1-1.9-6.8-4.601-8.5-6.4
		c-0.9-0.9-1.5-1.7-1.9-2.2c-0.4-0.5-0.6-0.8-0.6-0.8s0.1,0.3,0.3,0.9c0.2,0.6,0.5,1.6,1,2.799c0.5,1.201,1.2,2.701,2.2,4.5
		c1,1.701,2.4,3.601,4.4,5.601c2,1.899,4.5,3.8,7.7,5.3c3.2,1.5,7,2.6,11.1,3c37.7,3.9,71.4-30.8,69.9-67.7
		c-1.5-38.8-37.399-63.7-73.2-67.7c-39.2-4.4-77,18.6-99.4,49.8c-21.6,29.9-28.5,68.4-23,104.5c0.9,5.8,2.1,11.6,3.8,17.3
		c0.1,0.2-22.1,89.4-22.1,89.4l72-17.101c0.8,0.601,1.6,1.2,2.4,1.8c19.4,14,42,23.101,65.7,27.2L246.1,482l33.601-54.601l2.7-0.7
		l0.899-0.199l1.2-0.4l2.5-0.7l2.5-0.8l2.3-0.8c16.2-5.5,31.2-13.5,44.8-23.3l73.4,17.399L391.1,338.2
		c2.5-4.601,4.801-9.301,6.9-14.101c2.5-5.7,4.7-11.5,6.6-17.399l1.301-4.5l0.3-1.101l0.3-1l0.1-0.5l0.5-1.899l0.5-1.9l0.2-0.9
		l76-46.9L405.6,199.8c-1.8-6.2-3.899-12.3-6.3-18.2c-3.1-7.7-6.6-15-10.6-22.1L410,69.8L320.5,91c-4.6-2.5-9.3-4.9-14.1-7
		c-7.7-3.4-15.5-6.2-23.301-8.4L237.6,1.8l-43.4,70.5c-2.6,0.5-5.2,1-7.8,1.6c-13.6,3-26.6,7.6-38.6,13.4l-74-17.6l15.5,65.5
		c-2.3,3-4.4,6-6.4,9c-4.1,6.1-7.7,12.2-10.8,18.2c-6.3,12.1-10.9,23.8-14.6,34.6c-0.9,2.7-1.7,5.4-2.5,8l-55,34.4l42,46.1
		L44.5,277.899z"/>
</g>
<g>
</g>
<g>
</g>
<g>
</g>
<g>
</g>
<g>
</g>
<g>
</g>
<g>
</g>
<g>
</g>
<g>
</g>
<g>
</g>
<g>
</g>
<g>
</g>
<g>
</g>
<g>
</g>
<g>
</g>
</svg>
